# xmcd
# Track frame offsets:
# 150
# 14590
# 29260
# 42537
# 59135
# 72685
# 93092
# 103937
# 117590
# 129350
# 144397
# 155809
# 166112
# 180905
# 195100
#
# Disc length: 2692 seconds
# Revision: 4
# Processed by: cddbd v1.5.2PL0 Copyright (c) Steve Scherf et al.
# Submitted via: VisiTrax 2.11.2.271 - For more info visit www.synapsa.com
#
DISCID=d30a820f
DTITLE=Slim Dusty - Looking Forward Looking Back
DYEAR=2000
DGENRE=Australian Country
TTITLE0=Slim Dusty - Looking Forward Looking Back
TTITLE1=Slim Dusty - Never Was At All
TTITLE2=Slim Dusty - There's A Rainbow Over The Rock
TTITLE3=Slim Dusty With Kasey Chambers - Matilda No More
TTITLE4=Slim Dusty - The Bloke Who Serves The Beer
TTITLE5=Slim Dusty - Paddy William
TTITLE6=Slim Dusty - Clean Up Our Own Backyard
TTITLE7=Slim Dusty - Old Time Country Songs
TTITLE8=Slim Dusty - A Bad Day's Fishing
TTITLE9=Slim Dusty - Port Augusta
TTITLE10=Slim Dusty - Good Heavens Above
TTITLE11=Slim Dusty - Hooks and Ride
TTITLE12=Slim Dusty - Keela Valley Coals
TTITLE13=Slim Dusty - Memories And Dreams
TTITLE14=Slim Dusty - Looking Forward Looking Back (Reprise)
EXTD=
EXTT0=
EXTT1=
EXTT2=
EXTT3=
EXTT4=
EXTT5=
EXTT6=
EXTT7=
EXTT8=
EXTT9=
EXTT10=
EXTT11=
EXTT12=
EXTT13=
EXTT14=
PLAYORDER=
